<svg id="Слой_1" data-name="Слой 1" xmlns="http://www.w3.org/2000/svg" viewBox="0 0 395 99.16"><path d="M37.55,78.24a39.05,39.05,0,0,1-15.26-3,34.42,34.42,0,0,1-11.91-8.14A37.85,37.85,0,0,1,2.76,54.76,42.81,42.81,0,0,1,0,39.3,43.71,43.71,0,0,1,2.76,23.66a37,37,0,0,1,7.72-12.48A35.23,35.23,0,0,1,22.59,3,39.81,39.81,0,0,1,38.1,0Q51.6,0,60.69,7.25a32.48,32.48,0,0,1,11.68,19L60.81,30.43A24.34,24.34,0,0,0,52.74,17,22.19,22.19,0,0,0,38.05,11.9a24.49,24.49,0,0,0-9.76,2,24.19,24.19,0,0,0-8,5.48A25.25,25.25,0,0,0,15,28,30.58,30.58,0,0,0,13,39.1a31.72,31.72,0,0,0,1.94,11.23A24.89,24.89,0,0,0,20.25,59a24.06,24.06,0,0,0,7.91,5.43,24.55,24.55,0,0,0,9.69,1.94,23.73,23.73,0,0,0,15.09-4.88q6.23-4.87,8.87-14.05L73,51.3a34.38,34.38,0,0,1-4,10.53,33,33,0,0,1-7.14,8.52,31.4,31.4,0,0,1-10.56,5.8A42.66,42.66,0,0,1,37.55,78.24Z"/><path d="M84.52,77.25V25.1H96v9.66h.1a16.13,16.13,0,0,1,5.61-7.64,14.54,14.54,0,0,1,8.74-2.67,8,8,0,0,1,4.23.85V37.6a14.55,14.55,0,0,0-4.58-.64q-6.57,0-9.86,4.28T97,53.14V77.25Z"/><path d="M144.48,78.24a25.47,25.47,0,0,1-18.13-7.52,26,26,0,0,1-5.55-8.66A29.44,29.44,0,0,1,118.73,51q0-11.85,7.4-19.5a24.57,24.57,0,0,1,18.4-7.64,22.48,22.48,0,0,1,17,7q6.71,7,6.7,18.63a27.78,27.78,0,0,1-.3,4.13h-37.1q.54,6.63,4.6,10.36a13.39,13.39,0,0,0,9.34,3.73,12.79,12.79,0,0,0,7.77-2.36A13.21,13.21,0,0,0,157.23,59l10.26,3.78A20,20,0,0,1,159.25,74,25.46,25.46,0,0,1,144.48,78.24ZM131.09,45.07h25.3a13.73,13.73,0,0,0-4.06-8.76,11.35,11.35,0,0,0-8-3.09,13,13,0,0,0-8.56,3.11A14.12,14.12,0,0,0,131.09,45.07Z"/><path d="M176.76,42.38a18.56,18.56,0,0,1,7.54-13.74,25,25,0,0,1,7.1-3.56,26,26,0,0,1,8.07-1.27q9.1,0,14.84,4.75T220,42.38V77.25H208.48V69h-.25a16.3,16.3,0,0,1-6.07,6.5,18.11,18.11,0,0,1-9.86,2.61,17,17,0,0,1-11.58-4.06,13.62,13.62,0,0,1-4.66-10.83,13.39,13.39,0,0,1,4.21-9.91A20.63,20.63,0,0,1,191.65,48l9.56-1.64a11.89,11.89,0,0,0,5.48-2,5,5,0,0,0,1.69-4.09A5.93,5.93,0,0,0,206,35.56a9.69,9.69,0,0,0-6.42-2,11.6,11.6,0,0,0-8.12,3A10.38,10.38,0,0,0,188,44.28Zm12,20.08A5.53,5.53,0,0,0,190.85,67a9,9,0,0,0,5.73,1.69,11.19,11.19,0,0,0,3.11-.45,11.43,11.43,0,0,0,3.16-1.49,12.61,12.61,0,0,0,2.82-2.54,11.65,11.65,0,0,0,2-3.86,17.49,17.49,0,0,0,.74-5.21V52.69a54.39,54.39,0,0,1-7.32,1.7l-4.48.79a11.45,11.45,0,0,0-5.9,2.64A6.21,6.21,0,0,0,188.71,62.46Z"/><path d="M230.84,76.05V67h30.68q7.92,0,12.51,4.23a13.63,13.63,0,0,1,4.58,10.41q0,7.47-6.73,12.48t-18.32,5q-9.92,0-15.72-4T232,85.32A9.05,9.05,0,0,1,233.68,80a12.61,12.61,0,0,1,3.84-3.61v-.3ZM278.61,25.1v9h-6.78a13.64,13.64,0,0,1,3.24,9A17,17,0,0,1,269,56.33q-6.13,5.39-15.39,5.38a22.71,22.71,0,0,1-15.49-5.43,17.35,17.35,0,0,1-6.23-13.65,17,17,0,0,1,6.23-13.49q6.23-5.34,15.49-5.33a28.39,28.39,0,0,1,8.31,1.29ZM241.8,82.92a6.13,6.13,0,0,0,3.29,5.38,19.14,19.14,0,0,0,17.43-.1,6.35,6.35,0,0,0,3.39-5.52,5.57,5.57,0,0,0-2.12-4.49,9.21,9.21,0,0,0-6-1.74H249a7.12,7.12,0,0,0-5.3,1.94A6.26,6.26,0,0,0,241.8,82.92Zm1.84-40.14a9.54,9.54,0,0,0,2.87,7.1,10.3,10.3,0,0,0,14.14,0,9.54,9.54,0,0,0,2.87-7.1,9.46,9.46,0,0,0-2.87-7.07,10.33,10.33,0,0,0-14.14,0A9.49,9.49,0,0,0,243.64,42.78Z"/><path d="M324.48,74.38a25.71,25.71,0,0,1-27.1,0,25.18,25.18,0,0,1-9.06-10A29.52,29.52,0,0,1,285.23,51a29.15,29.15,0,0,1,1.84-10.28A28.25,28.25,0,0,1,292.18,32a23.41,23.41,0,0,1,8.14-6,25.49,25.49,0,0,1,10.61-2.21,24.62,24.62,0,0,1,13.57,3.81,25.17,25.17,0,0,1,9.07,10,30.36,30.36,0,0,1,0,26.77A25.4,25.4,0,0,1,324.48,74.38ZM297.83,51a18.35,18.35,0,0,0,3.61,11.51,12,12,0,0,0,19,0A18.19,18.19,0,0,0,324.08,51a17.89,17.89,0,0,0-3.64-11.38,12,12,0,0,0-19,0A18,18,0,0,0,297.83,51Z"/><path d="M382.8,74.38a25.7,25.7,0,0,1-27.09,0,25.13,25.13,0,0,1-9.07-10A29.52,29.52,0,0,1,343.55,51a28.93,28.93,0,0,1,1.85-10.28A28,28,0,0,1,350.5,32a23.41,23.41,0,0,1,8.14-6,25.49,25.49,0,0,1,10.61-2.21,24.6,24.6,0,0,1,13.57,3.81,25.17,25.17,0,0,1,9.07,10,30.36,30.36,0,0,1,0,26.77A25.4,25.4,0,0,1,382.8,74.38ZM356.15,51a18.35,18.35,0,0,0,3.61,11.51,12,12,0,0,0,19,0A18.19,18.19,0,0,0,382.4,51a17.89,17.89,0,0,0-3.64-11.38,12,12,0,0,0-19,0A18,18,0,0,0,356.15,51Z"/></svg>